<svg width="31" height="30" viewBox="0 0 31 30" fill="none" xmlns="http://www.w3.org/2000/svg">
<path d="M27.7307 30L17.3593 19.5C16.5362 20.1667 15.5896 20.6944 14.5195 21.0833C13.4494 21.4722 12.3108 21.6667 11.1035 21.6667C8.11281 21.6667 5.58196 20.6178 3.51097 18.52C1.43998 16.4222 0.40393 13.86 0.402832 10.8333C0.402832 7.80556 1.43888 5.24333 3.51097 3.14667C5.58306 1.05 8.11391 0.00111111 11.1035 0C14.0942 0 16.6251 1.04889 18.6961 3.14667C20.7671 5.24444 21.8031 7.80667 21.8042 10.8333C21.8042 12.0556 21.6121 13.2083 21.228 14.2917C20.8439 15.375 20.3226 16.3333 19.6641 17.1667L30.0355 27.6667L27.7307 30ZM11.1035 18.3333C13.1613 18.3333 14.9108 17.6039 16.3518 16.145C17.7928 14.6861 18.5128 12.9156 18.5117 10.8333C18.5117 8.75 17.7912 6.97889 16.3501 5.52C14.9091 4.06111 13.1602 3.33222 11.1035 3.33333C9.04569 3.33333 7.29627 4.06278 5.85524 5.52167C4.41422 6.98056 3.69425 8.75111 3.69535 10.8333C3.69535 12.9167 4.41586 14.6878 5.85689 16.1467C7.29792 17.6056 9.04679 18.3344 11.1035 18.3333Z" fill="white"/>
</svg>
